<svg xmlns="http://www.w3.org/2000/svg" xmlns:xlink="http://www.w3.org/1999/xlink" viewBox="0 0 24 24"><defs><style>.cls-1,.cls-3{fill:none;}.cls-2{clip-path:url(#clip-path);}.cls-3{stroke:#1d518d;stroke-linecap:round;stroke-linejoin:round;stroke-width:1.5px;}</style><clipPath id="clip-path"><rect class="cls-1" width="24" height="24"/></clipPath></defs><g id="Livello_2" data-name="Livello 2"><g id="Livello_1-2" data-name="Livello 1"><g class="cls-2"><path class="cls-3" d="M15,4l6,2v5H18v8a1,1,0,0,1-.29.71A1,1,0,0,1,17,20H7a1,1,0,0,1-.71-.29A1,1,0,0,1,6,19V11H3V6L9,4a3,3,0,0,0,.88,2.12,3,3,0,0,0,4.24,0A3,3,0,0,0,15,4Z"/></g></g></g></svg>