<svg xmlns="http://www.w3.org/2000/svg" xmlns:xlink="http://www.w3.org/1999/xlink" viewBox="0 0 24 24"><defs><style>.cls-1,.cls-3{fill:none;}.cls-2{clip-path:url(#clip-path);}.cls-3{stroke:#1d518d;stroke-linecap:round;stroke-linejoin:round;stroke-width:1.5px;}</style><clipPath id="clip-path"><rect class="cls-1" width="24" height="24"/></clipPath></defs><g id="Livello_2" data-name="Livello 2"><g id="Livello_1-2" data-name="Livello 1"><g class="cls-2"><path class="cls-3" d="M6,4a4,4,0,0,1,4,3.8V18.5a1.5,1.5,0,0,1-3,0V12H6A4,4,0,0,1,2,8.2V8A4,4,0,0,1,6,4Z"/><path class="cls-3" d="M18,4a4,4,0,0,0-4,3.8V18.5a1.5,1.5,0,0,0,3,0V12h1a4,4,0,0,0,4-3.8V8a4,4,0,0,0-4-4Z"/></g></g></g></svg>