<svg xmlns="http://www.w3.org/2000/svg" xmlns:xlink="http://www.w3.org/1999/xlink" viewBox="0 0 24 24"><defs><style>.cls-1,.cls-3{fill:none;}.cls-2{clip-path:url(#clip-path);}.cls-3{stroke:#1d518d;stroke-linecap:round;stroke-linejoin:round;stroke-width:1.5px;}</style><clipPath id="clip-path"><rect class="cls-1" width="24" height="24"/></clipPath></defs><g id="Livello_2" data-name="Livello 2"><g id="Livello_1-2" data-name="Livello 1"><g class="cls-2"><path class="cls-3" d="M8,13H8"/><path class="cls-3" d="M12,17h0"/><path class="cls-3" d="M12,12h0"/><path class="cls-3" d="M16,14h0"/><path class="cls-3" d="M11,8h0"/><path class="cls-3" d="M13.15,3.48l2.67,1.1a4,4,0,0,0,4.65,6.14l.05.13a3,3,0,0,1,0,2.3,14.07,14.07,0,0,0-1,1.85,16.5,16.5,0,0,0-.66,2.22,3,3,0,0,1-1.62,1.62A17.19,17.19,0,0,0,15,19.5a13.89,13.89,0,0,0-1.85,1,3,3,0,0,1-2.3,0A14.24,14.24,0,0,0,9,19.5a15,15,0,0,0-2.22-.66,3,3,0,0,1-1.62-1.62A16.69,16.69,0,0,0,4.5,15a12.75,12.75,0,0,0-1-1.85,3,3,0,0,1,0-2.3A11.78,11.78,0,0,0,4.5,9a18.52,18.52,0,0,0,.66-2.22A3.06,3.06,0,0,1,6.78,5.16,18.86,18.86,0,0,0,9,4.5a12.9,12.9,0,0,0,1.85-1A3,3,0,0,1,13.15,3.48Z"/></g></g></g></svg>