<svg xmlns="http://www.w3.org/2000/svg" xmlns:xlink="http://www.w3.org/1999/xlink" viewBox="0 0 24 24"><defs><style>.cls-1,.cls-3{fill:none;}.cls-2{clip-path:url(#clip-path);}.cls-3{stroke:#1d518d;stroke-linecap:round;stroke-linejoin:round;stroke-width:1.5px;}</style><clipPath id="clip-path"><rect class="cls-1" width="24" height="24"/></clipPath></defs><g id="Livello_2" data-name="Livello 2"><g id="Livello_1-2" data-name="Livello 1"><g class="cls-2"><path class="cls-3" d="M5,5A1,1,0,0,1,6,4H8A1,1,0,0,1,9,5V19a1,1,0,0,1-1,1H6a1,1,0,0,1-1-1Z"/><path class="cls-3" d="M9,5a1,1,0,0,1,1-1h2a1,1,0,0,1,1,1V19a1,1,0,0,1-1,1H10a1,1,0,0,1-1-1Z"/><path class="cls-3" d="M5,8H9"/><path class="cls-3" d="M9,16h4"/><path class="cls-3" d="M13.8,4.56,16,4a1.07,1.07,0,0,1,1.28.73L21,18.18a1,1,0,0,1-.08.73,1,1,0,0,1-.55.49l-.13,0L18,20a1.06,1.06,0,0,1-1.28-.73L13,5.82a1,1,0,0,1,.63-1.22Z"/><path class="cls-3" d="M14,9l4-1"/><path class="cls-3" d="M16,16l3.92-1"/></g></g></g></svg>