<svg xmlns="http://www.w3.org/2000/svg" xmlns:xlink="http://www.w3.org/1999/xlink" viewBox="0 0 24 24"><defs><style>.cls-1,.cls-3{fill:none;}.cls-2{clip-path:url(#clip-path);}.cls-3{stroke:#1d518d;stroke-linecap:round;stroke-linejoin:round;stroke-width:1.5px;}</style><clipPath id="clip-path"><rect class="cls-1" width="24" height="24"/></clipPath></defs><g id="Livello_2" data-name="Livello 2"><g id="Livello_1-2" data-name="Livello 1"><g class="cls-2"><path class="cls-3" d="M10,6V9"/><path class="cls-3" d="M14,6V9"/><path class="cls-3" d="M5,11A2,2,0,0,1,7,9H17a2,2,0,0,1,2,2v8a2,2,0,0,1-2,2H7a2,2,0,0,1-2-2Z"/><path class="cls-3" d="M10,15a2,2,0,1,0,.59-1.41A2,2,0,0,0,10,15Z"/><path class="cls-3" d="M9,3h6V6H9Z"/></g></g></g></svg>